<svg width="128" height="128" viewBox="0 0 128 128" fill="none" xmlns="http://www.w3.org/2000/svg">
  <rect width="128" height="128" rx="32" fill="#F4F1FA"/>
  <circle cx="64" cy="64" r="46" fill="url(#paint0_radial_1_2)" />
  <path d="M29 71C29 48.3563 47.3563 30 70 30H88L99 41V59" stroke="url(#paint1_linear_1_2)" stroke-width="9" stroke-linecap="round" stroke-linejoin="round"/>
  <path d="M99 59C99 81.6437 80.6437 100 58 100H40L29 89V71" stroke="url(#paint2_linear_1_2)" stroke-width="9" stroke-linecap="round" stroke-linejoin="round"/>
  <path d="M50 47H76V55H66V81H58V55H50V47Z" fill="url(#paint3_linear_1_2)"/>
  <circle cx="94" cy="39" r="7" fill="url(#paint4_linear_1_2)"/>
  <circle cx="35" cy="91" r="7" fill="url(#paint5_linear_1_2)"/>
  <defs>
    <radialGradient id="paint0_radial_1_2" cx="0" cy="0" r="1" gradientUnits="userSpaceOnUse" gradientTransform="translate(64 64) rotate(90) scale(46)">
      <stop stop-color="#E7E0F7"/>
      <stop offset="1" stop-color="#E7E0F7" stop-opacity="0"/>
    </radialGradient>
    <linearGradient id="paint1_linear_1_2" x1="29" y1="30" x2="99" y2="100" gradientUnits="userSpaceOnUse">
      <stop stop-color="#332F3A"/>
      <stop offset="1" stop-color="#7C3AED"/>
    </linearGradient>
    <linearGradient id="paint2_linear_1_2" x1="29" y1="30" x2="99" y2="100" gradientUnits="userSpaceOnUse">
      <stop stop-color="#332F3A"/>
      <stop offset="1" stop-color="#7C3AED"/>
    </linearGradient>
    <linearGradient id="paint3_linear_1_2" x1="50" y1="47" x2="76" y2="81" gradientUnits="userSpaceOnUse">
      <stop stop-color="#DB2777"/>
      <stop offset="1" stop-color="#7C3AED"/>
    </linearGradient>
    <linearGradient id="paint4_linear_1_2" x1="87" y1="32" x2="101" y2="46" gradientUnits="userSpaceOnUse">
      <stop stop-color="#DB2777"/>
      <stop offset="1" stop-color="#7C3AED"/>
    </linearGradient>
    <linearGradient id="paint5_linear_1_2" x1="28" y1="84" x2="42" y2="98" gradientUnits="userSpaceOnUse">
      <stop stop-color="#DB2777"/>
      <stop offset="1" stop-color="#7C3AED"/>
    </linearGradient>
  </defs>
</svg>
